Patient4_TMGait_0pt4_03_right_44_EMG.mot
version=1
nRows=13
nColumns=33
inDegrees=no
endheader
time	1LAddLong	2LGlutMax	3LGlutMed	4LIliopsoas	5LSemiMemb	6LBicFemLong	7LRecFem	8LVastMed	9LVastLat	10LGasMed	11LTibAnt	12lTibPost	13LPeroneusLong	14LSol	15LExtDigLong	16LFlexDigLong	17RAddLong	18RGlutMax	19RGlutMed	20RIliopsoas	21RSemiMemb	22RBicFemLong	23RRecFem	24RVastMed	25RVastLat	26RGasMed	27RTibAnt	28RTibPost	29RPeroneusLong	30RSol	31RExtDigLong	32RFlexDigLong
59.065	0.008392	-0.11337	-0.066986	0.019836	0.014038	0.002899	-0.033875	0.000763	0.026855	-0.034943	0.007629	0.001984	-0.15457	-0.014801	-0.027008	-0.018768	-0.025177	-0.081482	0.070648	-0.040741	0.1384	0.12512	-0.007935	-0.024109	0.035706	-0.021667	-0.23361	-0.002136	0.24704	-0.069733	0	0.001221
59.066	0.007477	-0.15564	-0.084839	0.016022	0.005798	-0.005341	-0.042267	-0.000916	0.064392	0.16846	0.017853	0.007782	-0.23727	-0.032501	-0.028992	-0.003204	-0.013123	-0.06012	0.033264	-0.07843	0.12955	0.13138	0.007782	0.000305	0.031891	-0.02121	-0.041962	-0.00061	0.15182	0.002136	-0.002289	-0.002594
59.067	-0.005951	-0.16113	-0.032501	-0.01236	-0.001678	0.031433	0.006104	0.003662	0.028534	0.1265	-0.015411	0.004883	-0.057678	-0.10849	-0.025024	0.001526	-0.014954	-0.024109	0.027618	-0.063171	0.070953	0.20416	-0.019684	0.046997	0.058136	-0.029755	0.12787	-0.006409	0.10574	0.06012	-0.001373	-0.002747
59.068	-0.00061	-0.1474	0.040283	-0.032043	0.005035	0.018768	-0.009613	-0.004578	0.016327	0.078735	-0.022278	0.005951	-0.048523	-0.093994	0.010071	-0.002747	0.006256	-0.045929	-0.1152	-0.033569	0.047455	0.1831	0.001678	0.049438	0.028076	-0.029755	0.27084	-0.005798	0.091248	0.10941	-0.002136	-0.003052
59.069	0.001068	-0.12039	0.14679	-0.034485	0.000305	0.027161	-0.018921	-0.001678	0.013123	0.053253	0.000763	0.001984	-0.05127	-0.020599	0.00885	-0.000458	0.010071	-0.087891	-0.34378	0.056763	0.058899	0.13046	-0.003357	0.013428	0.009613	-0.026703	0.29678	-0.001678	0.14282	-0.013885	-0.003357	-0.005341
59.07	-0.00473	-0.13184	0.14175	-0.015564	0.006866	0.023956	0.005341	-0.008087	0.00473	-0.056763	-0.000458	0.008545	-0.027161	0.049438	0.029755	-0.021057	-0.001678	-0.045624	-0.03891	0.077515	0.095825	0.069427	0.027008	-0.033722	0.020142	-0.019836	0.005188	-0.001984	0.60715	-0.11231	0.01709	-0.012207
59.071	0.000916	-0.12131	0.090332	0.002899	0.00824	0.00946	-0.016479	-0.001526	0.006561	-0.10071	0.000305	-0.007324	-0.025635	0.012817	0.02655	-0.02655	0.015869	-0.021362	0.11002	-0.003204	0.027466	0.06134	0.052185	-0.1062	0.000916	-0.023041	-0.065002	-0.000153	0.57617	-0.06424	-0.000458	0.001526
59.072	0.000458	-0.11398	0.079803	0.036316	0.009766	0.010223	0.003357	-0.00473	0.031738	-0.041962	0.002899	0.005646	-0.10834	-0.055237	0.007782	-0.013733	0.000153	-0.064392	-0.020447	-0.20584	-0.01297	0.021667	0.047913	-0.082397	-0.002136	-0.020142	0.047607	-0.002899	0.051422	-0.13123	-0.002594	-0.00061
59.073	0.002136	-0.14206	0.027771	0.015106	0.007629	-0.001221	0.014343	-0.007019	0.028381	0.018921	0.005646	0.00885	-0.053711	-0.028534	0.029602	-0.009918	-0.007324	-0.091248	-0.35095	-0.21423	-0.055084	0.10574	0.059662	-0.1387	-0.006714	-0.018158	0.15472	-0.004425	-0.50644	-0.16281	-0.002899	-0.005341
59.074	0.002594	-0.12436	0.015869	0.006256	0.010986	0.004578	0.022125	-0.003052	0.0177	0.097961	0.010681	0.004425	0.005188	0.049438	0.042572	0.019531	0.000763	-0.068512	-0.28183	-0.16846	-0.033417	0.12741	0.045471	-0.15579	-0.010529	-0.027008	0.12024	0.016174	-0.36713	-0.081177	-0.001526	-0.002899
59.075	0.002136	-0.103	0.041351	0.015259	0.012512	0.016785	0.001068	-0.001831	0.020752	0.079803	0.018311	0.007019	-0.001678	0.13794	0.040894	-0.000153	-0.032501	-0.026245	0.073547	-0.070038	0.17425	0.071564	0.011597	-0.068512	-0.007019	-0.0354	0.071564	-0.013275	-0.15274	0.061188	-0.003052	-0.012817
59.076	-0.001526	-0.10483	0.053101	0	0.016632	-0.003967	0.00946	-0.001984	0.006256	0.0177	0.011139	0.005035	-0.021057	0.053253	-0.010681	0.002594	-0.017395	-0.058899	-0.36468	0.1236	0.10407	0.03952	-0.027924	-0.027313	-0.019073	-0.049744	0.090637	0.000458	-0.097809	0.1503	0.001068	-0.015106
59.077	0.007477	-0.11978	0.05188	0.009155	0.015259	-0.009918	0.004883	0.00946	-0.010071	-0.057068	0.019379	0.006256	-0.008392	-0.013885	-0.029602	0.008698	-0.010376	-0.087433	-0.11917	0.39627	-0.18051	0.050964	-0.023804	-0.009155	0.000458	-0.041809	0.037842	-0.00061	-0.066681	0.086975	-0.003052	-0.011902
